# Blender 4.3.2
# www.blender.org
mtllib muro.mtl
o Cube
v -1.000000 -1.000000 1.000000
v -1.000000 -1.000000 -1.000000
v 1.000000 -1.000000 1.000000
v 1.000000 -1.000000 -1.000000
v -0.773250 1.000000 0.773250
v -1.000000 0.773250 1.000000
v -0.773250 1.000000 -0.773250
v -1.000000 0.773250 -1.000000
v 0.773250 1.000000 0.773250
v 1.000000 0.773250 1.000000
v 0.773250 1.000000 -0.773250
v 1.000000 0.773250 -1.000000
v -1.000000 -1.000000 3.000000
v -1.000000 -1.000000 1.000000
v 1.000000 -1.000000 3.000000
v 1.000000 -1.000000 1.000000
v -0.773250 1.000000 2.773250
v -1.000000 0.773250 3.000000
v -0.773250 1.000000 1.226750
v -1.000000 0.773250 1.000000
v 0.773250 1.000000 2.773250
v 1.000000 0.773250 3.000000
v 0.773250 1.000000 1.226750
v 1.000000 0.773250 1.000000
v -1.000000 -1.000000 5.000000
v -1.000000 -1.000000 3.000000
v 1.000000 -1.000000 5.000000
v 1.000000 -1.000000 3.000000
v -0.773250 1.000000 4.773250
v -1.000000 0.773250 5.000000
v -0.773250 1.000000 3.226750
v -1.000000 0.773250 3.000000
v 0.773250 1.000000 4.773250
v 1.000000 0.773250 5.000000
v 0.773250 1.000000 3.226750
v 1.000000 0.773250 3.000000
v -1.000000 -1.000000 11.000000
v -1.000000 -1.000000 9.000000
v 1.000000 -1.000000 11.000000
v 1.000000 -1.000000 9.000000
v -0.773250 1.000000 10.773250
v -1.000000 0.773250 11.000000
v -0.773250 1.000000 9.226750
v -1.000000 0.773250 9.000000
v 0.773250 1.000000 10.773250
v 1.000000 0.773250 11.000000
v 0.773250 1.000000 9.226750
v 1.000000 0.773250 9.000000
v -1.000000 -1.000000 9.000000
v -1.000000 -1.000000 7.000000
v 1.000000 -1.000000 9.000000
v 1.000000 -1.000000 7.000000
v -0.773250 1.000000 8.773250
v -1.000000 0.773250 9.000000
v -0.773250 1.000000 7.226750
v -1.000000 0.773250 7.000000
v 0.773250 1.000000 8.773250
v 1.000000 0.773250 9.000000
v 0.773250 1.000000 7.226750
v 1.000000 0.773250 7.000000
v -1.000000 -1.000000 7.000000
v -1.000000 -1.000000 5.000000
v 1.000000 -1.000000 7.000000
v 1.000000 -1.000000 5.000000
v -0.773250 1.000000 6.773250
v -1.000000 0.773250 7.000000
v -0.773250 1.000000 5.226750
v -1.000000 0.773250 5.000000
v 0.773250 1.000000 6.773250
v 1.000000 0.773250 7.000000
v 0.773250 1.000000 5.226750
v 1.000000 0.773250 5.000000
vn -0.0000 1.0000 -0.0000
vn 1.0000 -0.0000 -0.0000
vn -1.0000 -0.0000 -0.0000
vn -0.0000 -1.0000 -0.0000
vn -0.0000 -0.0000 -1.0000
vn -0.7071 0.7071 -0.0000
vn -0.0000 0.7071 -0.7071
vn 0.7071 0.7071 -0.0000
vn -0.0000 0.7071 0.7071
vn -0.0000 -0.0000 1.0000
vt 0.653344 0.528344
vt 0.846656 0.528344
vt 0.846656 0.721656
vt 0.653344 0.721656
vt 0.375000 0.500000
vt 0.596656 0.500000
vt 0.596656 0.750000
vt 0.375000 0.750000
vt 0.375000 0.000000
vt 0.596656 0.000000
vt 0.596656 0.250000
vt 0.375000 0.250000
vt 0.125000 0.500000
vt 0.125000 0.750000
vt 0.875000 0.500000
vt 0.875000 0.750000
vt 0.625000 0.500000
vt 0.625000 0.750000
vt 0.596656 1.000000
vt 0.375000 1.000000
s 0
f 11/1/1 7/2/1 5/3/1 9/4/1
f 4/5/2 12/6/2 10/7/2 3/8/2
f 1/9/3 6/10/3 8/11/3 2/12/3
f 2/13/4 4/5/4 3/8/4 1/14/4
f 2/12/5 8/11/5 12/6/5 4/5/5
f 5/3/6 7/2/6 8/15/6 6/16/6
f 7/2/7 11/1/7 12/17/7 8/15/7
f 11/1/8 9/4/8 10/7/8 12/6/8
f 9/4/9 5/3/9 6/16/9 10/18/9
f 3/8/10 10/7/10 6/19/10 1/20/10
f 23/1/1 19/2/1 17/3/1 21/4/1
f 16/5/2 24/6/2 22/7/2 15/8/2
f 13/9/3 18/10/3 20/11/3 14/12/3
f 14/13/4 16/5/4 15/8/4 13/14/4
f 14/12/5 20/11/5 24/6/5 16/5/5
f 17/3/6 19/2/6 20/15/6 18/16/6
f 19/2/7 23/1/7 24/17/7 20/15/7
f 23/1/8 21/4/8 22/7/8 24/6/8
f 21/4/9 17/3/9 18/16/9 22/18/9
f 15/8/10 22/7/10 18/19/10 13/20/10
f 35/1/1 31/2/1 29/3/1 33/4/1
f 28/5/2 36/6/2 34/7/2 27/8/2
f 25/9/3 30/10/3 32/11/3 26/12/3
f 26/13/4 28/5/4 27/8/4 25/14/4
f 26/12/5 32/11/5 36/6/5 28/5/5
f 29/3/6 31/2/6 32/15/6 30/16/6
f 31/2/7 35/1/7 36/17/7 32/15/7
f 35/1/8 33/4/8 34/7/8 36/6/8
f 33/4/9 29/3/9 30/16/9 34/18/9
f 27/8/10 34/7/10 30/19/10 25/20/10
f 47/1/1 43/2/1 41/3/1 45/4/1
f 40/5/2 48/6/2 46/7/2 39/8/2
f 37/9/3 42/10/3 44/11/3 38/12/3
f 38/13/4 40/5/4 39/8/4 37/14/4
f 38/12/5 44/11/5 48/6/5 40/5/5
f 41/3/6 43/2/6 44/15/6 42/16/6
f 43/2/7 47/1/7 48/17/7 44/15/7
f 47/1/8 45/4/8 46/7/8 48/6/8
f 45/4/9 41/3/9 42/16/9 46/18/9
f 39/8/10 46/7/10 42/19/10 37/20/10
f 59/1/1 55/2/1 53/3/1 57/4/1
f 52/5/2 60/6/2 58/7/2 51/8/2
f 49/9/3 54/10/3 56/11/3 50/12/3
f 50/13/4 52/5/4 51/8/4 49/14/4
f 50/12/5 56/11/5 60/6/5 52/5/5
f 53/3/6 55/2/6 56/15/6 54/16/6
f 55/2/7 59/1/7 60/17/7 56/15/7
f 59/1/8 57/4/8 58/7/8 60/6/8
f 57/4/9 53/3/9 54/16/9 58/18/9
f 51/8/10 58/7/10 54/19/10 49/20/10
f 71/1/1 67/2/1 65/3/1 69/4/1
f 64/5/2 72/6/2 70/7/2 63/8/2
f 61/9/3 66/10/3 68/11/3 62/12/3
f 62/13/4 64/5/4 63/8/4 61/14/4
f 62/12/5 68/11/5 72/6/5 64/5/5
f 65/3/6 67/2/6 68/15/6 66/16/6
f 67/2/7 71/1/7 72/17/7 68/15/7
f 71/1/8 69/4/8 70/7/8 72/6/8
f 69/4/9 65/3/9 66/16/9 70/18/9
f 63/8/10 70/7/10 66/19/10 61/20/10
